<?xml version="1.0" standalone="no"?>
<!DOCTYPE svg PUBLIC "-//W3C//DTD SVG 20010904//EN"
 "http://www.w3.org/TR/2001/REC-SVG-20010904/DTD/svg10.dtd">
<svg version="1.0" xmlns="http://www.w3.org/2000/svg"
 width="260.000000pt" height="260.000000pt" viewBox="0 0 260.000000 260.000000"
 preserveAspectRatio="xMidYMid meet">
<metadata>
Created by potrace 1.11, written by Peter Selinger 2001-2013
</metadata>
<g transform="translate(0.000000,260.000000) scale(0.100000,-0.100000)"
fill="#000000" stroke="none">
<path d="M0 1574 c0 -990 1 -1027 19 -1050 l19 -24 17 52 c40 122 119 186 219
175 l53 -5 17 53 c45 143 194 220 280 145 19 -17 78 -89 131 -159 52 -71 103
-132 111 -135 9 -3 27 0 42 8 l26 14 -32 16 c-60 31 -81 117 -47 190 19 39
112 148 168 196 20 18 37 38 37 46 0 7 -17 31 -38 54 -30 30 -47 40 -71 40
-41 0 -103 -32 -131 -67 -22 -29 -22 -30 -4 -150 5 -38 4 -44 -19 -54 -69 -32
-112 71 -68 166 37 81 181 185 256 185 60 0 95 -30 204 -175 115 -152 134
-165 182 -126 23 19 23 20 4 21 -11 0 -31 7 -44 16 -21 15 -23 23 -18 68 2 28
7 58 11 67 6 13 -1 18 -31 23 -158 25 -195 206 -67 330 46 45 110 76 157 76
33 0 37 3 47 38 15 54 23 63 82 92 41 20 59 36 78 73 14 25 29 50 34 54 4 4
24 -12 45 -36 l37 -44 22 59 c56 152 190 214 327 150 143 -66 225 -275 158
-402 -40 -76 -115 -124 -206 -133 l-58 -6 68 -92 c37 -51 74 -95 81 -98 8 -3
27 3 43 12 27 16 30 16 46 0 9 -9 15 -18 12 -20 -30 -26 -201 -147 -208 -147
-5 0 -14 6 -20 13 -8 11 -5 19 14 37 14 13 25 30 25 38 0 8 -88 133 -196 278
l-195 263 -42 -42 c-23 -23 -57 -50 -74 -59 -18 -9 -33 -21 -33 -25 1 -4 15
-17 33 -28 51 -32 77 -80 77 -141 0 -98 -46 -166 -145 -215 -49 -24 -64 -37
-68 -57 -6 -29 7 -52 29 -52 7 0 81 35 163 77 133 68 159 78 216 81 63 4 66 3
100 -31 22 -22 35 -45 36 -63 4 -107 -39 -175 -175 -276 -97 -73 -136 -90
-205 -91 -47 -1 -56 2 -78 28 -22 25 -25 36 -21 91 l4 63 -37 -34 c-53 -48
-107 -62 -149 -41 -40 19 -40 19 -40 4 0 -7 -12 -38 -26 -68 -27 -60 -82 -123
-127 -146 -16 -9 -89 -61 -163 -116 -127 -94 -136 -99 -149 -82 -12 17 -11 22
6 40 10 11 19 30 19 42 0 30 -202 298 -230 305 -57 15 -123 -44 -156 -139
l-18 -52 98 -131 c83 -111 102 -131 125 -131 15 0 32 5 39 12 8 8 15 8 27 -2
8 -7 15 -16 15 -20 0 -6 -161 -132 -197 -153 -7 -5 -16 1 -23 12 -8 17 -6 25
10 41 11 11 20 29 20 39 0 31 -205 299 -234 307 -59 15 -127 -51 -157 -153
l-12 -42 94 -126 c96 -129 119 -147 159 -125 18 10 25 9 38 -4 9 -8 14 -17 11
-19 -2 -2 -50 -39 -107 -81 -97 -73 -104 -77 -117 -59 -12 16 -11 21 11 44 13
14 24 32 24 41 0 12 -157 238 -186 267 -2 2 -4 -84 -4 -192 l0 -197 1300 0
1300 0 0 910 c0 501 -2 910 -5 910 -3 0 -59 -40 -126 -90 -66 -49 -124 -90
-128 -90 -5 0 -14 7 -21 15 -10 12 -7 19 16 38 21 18 26 29 21 48 -4 13 -57
92 -120 176 l-113 152 -33 -26 c-31 -24 -33 -25 -46 -7 -17 23 -19 34 -5 34 6
0 29 29 51 65 23 36 44 65 48 65 3 0 72 -88 151 -195 80 -107 153 -197 163
-200 31 -11 127 60 127 95 0 28 -208 302 -223 294 -6 -4 -20 -14 -29 -22 -14
-12 -20 -12 -33 -2 -16 14 -20 40 -6 40 5 0 28 29 50 65 23 36 43 65 45 65 2
0 46 -57 97 -127 52 -70 99 -134 106 -143 10 -12 12 41 13 258 l0 272 -1300 0
-1300 0 0 -1026z m2254 994 c23 -33 20 -75 -9 -103 -37 -38 -80 -33 -104 12
-17 32 -14 48 15 82 32 38 75 42 98 9z m-209 -224 c24 -24 15 -73 -17 -97 -25
-19 -28 -19 -52 -3 -32 20 -35 67 -6 96 24 24 53 26 75 4z"/>
<path d="M1845 1870 c-33 -21 -66 -72 -89 -137 l-14 -39 68 -91 c38 -50 81
-100 96 -112 61 -48 182 -11 220 66 38 78 14 170 -67 258 -69 74 -151 96 -214
55z"/>
<path d="M1292 1480 c-84 -51 -78 -176 11 -230 110 -68 242 55 182 169 -39 77
-124 103 -193 61z"/>
<path d="M1725 1141 c-27 -10 -89 -39 -136 -65 -74 -40 -87 -51 -93 -78 -18
-89 9 -148 67 -148 100 0 277 152 277 237 0 34 -29 73 -52 73 -7 -1 -35 -9
-63 -19z"/>
<path d="M1020 974 c-39 -42 -78 -92 -87 -111 -27 -65 6 -123 70 -123 62 0
111 47 152 148 l23 56 -40 53 c-22 29 -42 53 -43 53 -1 0 -35 -34 -75 -76z"/>
</g>
</svg>
